<svg width="34" height="34" viewBox="0 0 34 34" fill="none" xmlns="http://www.w3.org/2000/svg">
<g clip-path="url(#clip0_306_26)">
<path d="M14.5492 17H19.4509C20.7684 17 21.76 15.8242 21.5475 14.5208L21.1225 11.985C20.7825 9.97333 19.04 8.5 17 8.5C14.96 8.5 13.2175 9.97333 12.8775 11.9992L12.4525 14.535C12.24 15.8242 13.2317 17 14.5492 17Z" fill="#D82E85"/>
<path d="M2.35164 15.7392C2.16747 16.1075 2.09664 16.5467 2.20997 16.9859C2.43664 17.9634 3.28664 18.445 4.37747 18.4025C4.37747 18.4025 6.4883 18.4025 7.13997 18.4025C8.3158 18.4025 9.27914 17.5809 9.27914 16.575C9.27914 16.3767 9.23664 16.1925 9.17997 16.0084C9.16581 15.9659 9.1658 15.9375 9.19414 15.895C9.32164 15.6684 9.39247 15.4134 9.39247 15.1442C9.39247 14.705 9.19414 14.2942 8.88247 13.9825C8.83997 13.94 8.83997 13.8975 8.85414 13.8409C8.95331 13.5575 8.95331 13.2317 8.86831 12.92C8.64164 12.3109 8.08914 11.9 7.4658 11.8717C7.4233 11.8717 7.39497 11.8575 7.36664 11.8292C7.1258 11.5317 6.68664 11.3334 6.1908 11.3334C5.7658 11.3334 5.3833 11.475 5.1283 11.7017C5.0858 11.7442 5.0433 11.7442 5.0008 11.73C4.80247 11.645 4.5758 11.6025 4.34914 11.6025C3.4283 11.6025 2.67747 12.2967 2.59247 13.1892C2.59247 13.2175 2.5783 13.2459 2.54997 13.2742C2.13914 13.6425 1.89831 14.195 1.96914 14.7617C2.01164 15.0734 2.13914 15.3709 2.32331 15.6117C2.36581 15.64 2.36581 15.6967 2.35164 15.7392Z" fill="#D82E85"/>
<path d="M23.0067 19.3375C21.3492 18.6008 19.3092 18.0625 17 18.0625C14.6908 18.0625 12.6508 18.615 10.9933 19.3375C9.46333 20.0175 8.5 21.5475 8.5 23.2192V24.0833C8.5 24.8625 9.1375 25.5 9.91667 25.5H24.0833C24.8625 25.5 25.5 24.8625 25.5 24.0833V23.2192C25.5 21.5475 24.5367 20.0175 23.0067 19.3375Z" fill="#D82E85"/>
<path d="M1.72833 20.655C0.68 21.1084 0 22.1284 0 23.2759V24.0834C0 24.8625 0.6375 25.5 1.41667 25.5H6.375V23.2192C6.375 22.0434 6.70083 20.9384 7.2675 19.975C6.74333 19.89 6.21917 19.8334 5.66667 19.8334C4.26417 19.8334 2.9325 20.1309 1.72833 20.655Z" fill="#D82E85"/>
<path d="M32.2716 20.655C31.0675 20.1309 29.7358 19.8334 28.3333 19.8334C27.7808 19.8334 27.2566 19.89 26.7325 19.975C27.2991 20.9384 27.625 22.0434 27.625 23.2192V25.5H32.5833C33.3625 25.5 34 24.8625 34 24.0834V23.2759C34 22.1284 33.32 21.1084 32.2716 20.655Z" fill="#D82E85"/>
<path d="M31.1667 15.5833V14.875C31.1667 13.3166 29.8917 12.0416 28.3333 12.0416H25.5C24.905 12.0416 24.5792 12.7216 24.9475 13.1891L25.9392 14.0816C25.67 14.5208 25.5 15.0308 25.5 15.5833C25.5 17.1416 26.775 18.4166 28.3333 18.4166C29.8917 18.4166 31.1667 17.1416 31.1667 15.5833Z" fill="#D82E85"/>
</g>
<defs>
<clipPath id="clip0_306_26">
<rect width="34" height="34" fill="white"/>
</clipPath>
</defs>
</svg>
